<svg width="18" height="21" viewBox="0 0 18 21" fill="none" xmlns="http://www.w3.org/2000/svg">
<mask id="mask0_809_257" style="mask-type:luminance" maskUnits="userSpaceOnUse" x="0" y="0" width="18" height="21">
<path d="M17.604 0H0V20.204H17.604V0Z" fill="white"/>
</mask>
<g mask="url(#mask0_809_257)">
<path d="M17.5349 9.95308C17.5349 10.5522 17.2969 11.1268 16.8732 11.5504C16.4496 11.9741 15.875 12.2121 15.2759 12.2121H2.59388C2.29329 12.2184 1.99446 12.1647 1.71491 12.054C1.43536 11.9433 1.18071 11.778 0.965892 11.5677C0.751071 11.3573 0.580401 11.1062 0.463886 10.829C0.34737 10.5519 0.287354 10.2542 0.287354 9.95358C0.287354 9.65292 0.34737 9.35529 0.463886 9.07813C0.580401 8.80097 0.751071 8.54986 0.965892 8.33951C1.18071 8.12916 1.43536 7.96381 1.71491 7.85315C1.99446 7.74249 2.29329 7.68875 2.59388 7.69508H15.2759C15.875 7.69508 16.4496 7.93308 16.8732 8.35672C17.2969 8.78037 17.5349 9.35396 17.5349 9.95308Z" fill="#FEE57C"/>
<path d="M11.6499 0.681076C12.0891 1.11872 12.3364 1.71286 12.3375 2.33283C12.3386 2.9528 12.0935 3.54784 11.6559 3.98708L3.99394 11.7761C3.55634 12.2154 2.96213 12.4629 2.34204 12.4641C1.72195 12.4653 1.12677 12.2202 0.687443 11.7826C0.248112 11.345 0.000613159 10.7508 -0.000605827 10.1307C-0.00182481 9.51058 0.243336 8.91541 0.680943 8.47608L8.34394 0.688076C8.78146 0.248818 9.37552 0.00131795 9.99549 5.24835e-06C10.6155 -0.00130745 11.2106 0.243675 11.6499 0.681076Z" fill="#8AD7BC"/>
<path d="M3.69094 10.1262C3.69094 10.3833 3.6147 10.6346 3.47185 10.8484C3.32901 11.0622 3.12598 11.2288 2.88843 11.3272C2.65089 11.4256 2.3895 11.4514 2.13733 11.4012C1.88515 11.351 1.65351 11.2272 1.4717 11.0454C1.2899 10.8636 1.16608 10.632 1.11592 10.3798C1.06576 10.1276 1.09151 9.86623 1.1899 9.62868C1.28829 9.39114 1.45492 9.18811 1.6687 9.04526C1.88249 8.90242 2.13383 8.82617 2.39094 8.82617C2.73572 8.82617 3.06638 8.96313 3.31018 9.20693C3.55398 9.45073 3.69094 9.78139 3.69094 10.1262Z" fill="white"/>
<path d="M16.9159 8.41914C17.3551 8.85665 17.6026 9.45072 17.604 10.0707C17.6053 10.6907 17.3603 11.2858 16.9229 11.7251L9.26189 19.5161C8.82428 19.9555 8.23007 20.203 7.60998 20.2042C6.9899 20.2054 6.39472 19.9602 5.95539 19.5226C5.51606 19.085 5.26856 18.4908 5.26734 17.8707C5.26612 17.2506 5.51128 16.6555 5.94889 16.2161L13.6099 8.42514C14.0474 7.98588 14.6415 7.73838 15.2614 7.73707C15.8814 7.73575 16.4765 7.98174 16.9159 8.41914Z" fill="#283874"/>
<path d="M16.414 10.1262C16.414 10.3833 16.3377 10.6346 16.1949 10.8484C16.052 11.0622 15.849 11.2288 15.6115 11.3272C15.3739 11.4256 15.1125 11.4514 14.8604 11.4012C14.6082 11.351 14.3765 11.2272 14.1947 11.0454C14.0129 10.8636 13.8891 10.632 13.8389 10.3798C13.7888 10.1276 13.8145 9.86623 13.9129 9.62868C14.0113 9.39114 14.1779 9.18811 14.3917 9.04526C14.6055 8.90242 14.8569 8.82617 15.114 8.82617C15.4587 8.82617 15.7894 8.96313 16.0332 9.20693C16.277 9.45073 16.414 9.78139 16.414 10.1262Z" fill="white"/>
</g>
</svg>
